<svg width="800px" height="800px" viewBox="0 0 512 512" id="Layer_1" version="1.1" xml:space="preserve" xmlns="http://www.w3.org/2000/svg" xmlns:xlink="http://www.w3.org/1999/xlink">

<style type="text/css">
	.st0{fill:#00fcc2;}
</style>

<g>

<path class="st0" d="M256,116.3c-77,0-139.7,62.6-139.7,139.7S179,395.7,256,395.7S395.7,333,395.7,256S333,116.3,256,116.3z    M256,388.7c-73.1,0-132.7-59.5-132.7-132.7S182.9,123.3,256,123.3S388.7,182.9,388.7,256S329.1,388.7,256,388.7z"/>

<path class="st0" d="M203.3,157.7c-1-1.7-3.1-2.2-4.8-1.3c-1.7,1-2.2,3.1-1.3,4.8l1.5,2.5c0.6,1.1,1.8,1.8,3,1.8   c0.6,0,1.2-0.2,1.7-0.5c1.7-1,2.2-3.1,1.3-4.8L203.3,157.7z"/>

<path class="st0" d="M347,203.5c0.6,1.1,1.8,1.8,3,1.8c0.6,0,1.2-0.2,1.7-0.5l2.5-1.5c1.7-1,2.2-3.1,1.3-4.8   c-1-1.7-3.1-2.2-4.8-1.3l-2.5,1.5C346.6,199.7,346,201.8,347,203.5z"/>

<path class="st0" d="M313.3,348.3c-1-1.7-3.1-2.2-4.8-1.3c-1.7,1-2.2,3.1-1.3,4.8l1.5,2.5c0.6,1.1,1.8,1.8,3,1.8   c0.6,0,1.2-0.2,1.7-0.5c1.7-1,2.2-3.1,1.3-4.8L313.3,348.3z"/>

<path class="st0" d="M160.2,307.3l-2.5,1.5c-1.7,1-2.2,3.1-1.3,4.8c0.6,1.1,1.8,1.8,3,1.8c0.6,0,1.2-0.2,1.7-0.5l2.5-1.5   c1.7-1,2.2-3.1,1.3-4.8C164,306.9,161.9,306.3,160.2,307.3z"/>

<path class="st0" d="M163.7,198.7l-2.5-1.5c-1.7-1-3.8-0.4-4.8,1.3c-1,1.7-0.4,3.8,1.3,4.8l2.5,1.5c0.6,0.3,1.2,0.5,1.7,0.5   c1.2,0,2.4-0.6,3-1.8C166,201.8,165.4,199.7,163.7,198.7z"/>

<path class="st0" d="M313.5,156.4c-1.7-1-3.8-0.4-4.8,1.3l-1.5,2.5c-1,1.7-0.4,3.8,1.3,4.8c0.6,0.3,1.2,0.5,1.7,0.5   c1.2,0,2.4-0.6,3-1.8l1.5-2.5C315.7,159.5,315.2,157.4,313.5,156.4z"/>

<path class="st0" d="M354.3,308.7l-2.5-1.5c-1.7-1-3.8-0.4-4.8,1.3c-1,1.7-0.4,3.8,1.3,4.8l2.5,1.5c0.6,0.3,1.2,0.5,1.7,0.5   c1.2,0,2.4-0.6,3-1.8C356.5,311.8,356,309.7,354.3,308.7z"/>

<path class="st0" d="M203.5,347c-1.7-1-3.8-0.4-4.8,1.3l-1.5,2.5c-1,1.7-0.4,3.8,1.3,4.8c0.6,0.3,1.2,0.5,1.7,0.5   c1.2,0,2.4-0.6,3-1.8l1.5-2.5C205.7,350.1,205.1,348,203.5,347z"/>

<path class="st0" d="M256,157.8c1.9,0,3.5-1.6,3.5-3.5v-17.4c0-1.9-1.6-3.5-3.5-3.5s-3.5,1.6-3.5,3.5v17.4   C252.5,156.3,254.1,157.8,256,157.8z"/>

<path class="st0" d="M354.2,256c0,1.9,1.6,3.5,3.5,3.5h17.4c1.9,0,3.5-1.6,3.5-3.5s-1.6-3.5-3.5-3.5h-17.4   C355.7,252.5,354.2,254.1,354.2,256z"/>

<path class="st0" d="M256,354.2c-1.9,0-3.5,1.6-3.5,3.5v17.4c0,1.9,1.6,3.5,3.5,3.5s3.5-1.6,3.5-3.5v-17.4   C259.5,355.7,257.9,354.2,256,354.2z"/>

<path class="st0" d="M157.8,256c0-1.9-1.6-3.5-3.5-3.5h-17.4c-1.9,0-3.5,1.6-3.5,3.5s1.6,3.5,3.5,3.5h17.4   C156.3,259.5,157.8,257.9,157.8,256z"/>

<path class="st0" d="M290.5,190.1c-1.7-0.9-3.8-0.2-4.7,1.5l-32.9,62.8c0,0,0,0.1,0,0.1c-0.1,0.1-0.1,0.2-0.1,0.4   c0,0.1-0.1,0.2-0.1,0.3c0,0.1,0,0.2-0.1,0.3c0,0.1,0,0.2,0,0.4c0,0,0,0.1,0,0.1c0,0.1,0,0.1,0,0.2c0,0.1,0,0.2,0,0.4   c0,0.1,0,0.2,0.1,0.3c0,0.1,0.1,0.2,0.1,0.3c0,0.1,0.1,0.2,0.1,0.3c0,0.1,0.1,0.2,0.2,0.3c0.1,0.1,0.1,0.2,0.2,0.3   c0.1,0.1,0.1,0.2,0.2,0.3c0.1,0.1,0.2,0.2,0.2,0.2c0.1,0.1,0.2,0.1,0.3,0.2c0.1,0.1,0.2,0.1,0.3,0.2c0.1,0,0.1,0.1,0.1,0.1   c0,0,0.1,0,0.1,0c0.2,0.1,0.4,0.1,0.5,0.2c0.1,0,0.1,0,0.2,0.1c0.2,0.1,0.5,0.1,0.7,0.1c0,0,0,0,0,0c0,0,0,0,0,0h30.7   c1.9,0,3.5-1.6,3.5-3.5s-1.6-3.5-3.5-3.5h-24.9l30.2-57.7C292.9,193.1,292.2,191,290.5,190.1z"/>

<path class="st0" d="M256,94.9c-88.8,0-161.1,72.3-161.1,161.1S167.1,417.1,256,417.1S417.1,344.9,417.1,256S344.8,94.9,256,94.9z    M256,403.1c-81.1,0-147.1-66-147.1-147.1s66-147.1,147.1-147.1s147.1,66,147.1,147.1S337.1,403.1,256,403.1z"/>

<path class="st0" d="M439.8,256c0-2.4,0-4.8-0.1-7.2l20.3-11.9l-0.5-4.5c-1.2-10.9-3.4-21.8-6.4-32.2l-1.3-4.4l-23.3-3.3   c-1.7-4.5-3.5-9-5.5-13.4l14.1-18.8l-2.2-4c-5.4-9.7-11.5-18.8-18.3-27.3l-2.8-3.6l-22.8,5.9c-3.3-3.6-6.7-7-10.3-10.3l5.9-22.8   l-3.6-2.8c-8.5-6.7-17.6-12.9-27.3-18.3l-4-2.2L333,89.1c-4.4-2-8.9-3.9-13.4-5.5l-3.3-23.3l-4.4-1.3c-10.4-3-21.3-5.1-32.2-6.4   l-4.5-0.5l-11.9,20.3c-4.8-0.2-9.7-0.2-14.5,0l-11.9-20.3l-4.5,0.5c-10.9,1.2-21.8,3.4-32.2,6.4l-4.4,1.3l-3.3,23.3   c-4.5,1.7-9,3.5-13.4,5.5L160.2,75l-4,2.2c-9.5,5.3-18.7,11.5-27.3,18.3l-3.6,2.8l5.9,22.8c-3.6,3.3-7,6.7-10.2,10.2l-22.7-5.9   l-2.8,3.6c-6.8,8.5-12.9,17.7-18.3,27.3l-2.2,4L89.1,179c-2,4.4-3.9,8.9-5.6,13.5l-23.3,3.3l-1.2,4.4c-3,10.5-5.1,21.3-6.3,32.2   l-0.5,4.5l20.2,11.9c-0.1,2.4-0.1,4.8-0.1,7.3c0,2.4,0,4.8,0.1,7.2l-20.2,11.9l0.5,4.5c1.2,10.9,3.4,21.7,6.3,32.2l1.2,4.4   l23.3,3.3c1.7,4.6,3.6,9.1,5.6,13.4L75,351.8l2.2,4c5.3,9.5,11.4,18.7,18.3,27.3l2.8,3.6l22.7-5.9c3.3,3.6,6.7,7,10.3,10.3   l-5.9,22.7l3.6,2.8c8.6,6.9,17.8,13,27.3,18.3l4,2.2l18.8-14.1c4.4,2,8.9,3.9,13.4,5.6l3.3,23.3l4.4,1.2c10.5,3,21.3,5.1,32.2,6.3   l4.5,0.5l11.9-20.2c4.8,0.2,9.7,0.2,14.5,0l11.9,20.2l4.5-0.5c10.9-1.2,21.7-3.4,32.2-6.3l4.4-1.2l3.3-23.3   c4.6-1.7,9.1-3.6,13.5-5.6l18.8,14.1l4-2.2c9.6-5.4,18.8-11.5,27.3-18.3l3.6-2.8l-5.9-22.7c3.6-3.3,7-6.7,10.2-10.2l22.8,5.9   l2.8-3.6c6.8-8.6,12.9-17.8,18.3-27.3l2.2-4L422.9,333c2-4.4,3.9-8.9,5.5-13.4l23.3-3.3l1.3-4.4c3-10.4,5.1-21.3,6.4-32.2l0.5-4.5   l-20.3-11.9C439.7,260.9,439.8,258.4,439.8,256z M444.9,282.6c-1,7.1-2.4,14.2-4.2,21.1l-22.7,3.2l-1.4,4.1   c-2.3,6.8-5.1,13.4-8.2,19.8l-1.9,3.9l13.7,18.3c-3.6,6.2-7.7,12.2-12,17.9l-22.2-5.7l-2.8,3.2c-4.7,5.3-9.7,10.4-15.1,15.1   l-3.3,2.8l5.7,22.2c-5.7,4.3-11.7,8.3-17.9,12l-18.3-13.8l-3.9,1.9c-6.3,3.1-13,5.9-19.8,8.2l-4.1,1.4l-3.2,22.6   c-6.9,1.8-14,3.2-21.1,4.2l-11.6-19.7l-4.3,0.3c-7,0.5-14.3,0.5-21.3,0l-4.3-0.3l-11.6,19.7c-7.1-1-14.2-2.4-21.1-4.2l-3.2-22.6   l-4.1-1.4c-6.8-2.3-13.5-5.1-19.8-8.2l-3.9-1.9l-18.3,13.8c-6.1-3.6-12.1-7.6-17.9-12l5.7-22.2l-3.2-2.8   c-5.3-4.7-10.4-9.7-15.1-15.1l-2.8-3.2l-22.2,5.7c-4.4-5.8-8.4-11.7-12-17.9l13.8-18.3l-1.9-3.9c-3.1-6.3-5.9-12.9-8.2-19.8   l-1.4-4.1l-22.6-3.2c-1.8-6.9-3.2-14-4.2-21.1L86.8,271l-0.3-4.3c-0.2-3.5-0.3-7.1-0.3-10.7s0.1-7.2,0.3-10.7l0.3-4.3l-19.7-11.6   c1-7.1,2.4-14.2,4.2-21.1l22.6-3.2l1.4-4.1c2.3-6.8,5.1-13.5,8.2-19.8l1.9-3.9l-13.8-18.3c3.7-6.2,7.7-12.2,12-17.9l22.2,5.7   l2.8-3.3c4.7-5.3,9.7-10.4,15.1-15.1l3.2-2.8l-5.7-22.2c5.7-4.3,11.7-8.3,17.9-12l18.3,13.7l3.9-1.9c6.4-3.1,13-5.9,19.8-8.2   l4.1-1.4l3.2-22.7c6.9-1.8,14-3.2,21.1-4.2L241,86.9l4.3-0.3c7-0.5,14.3-0.5,21.3,0l4.3,0.3l11.6-19.7c7.1,1,14.2,2.4,21.1,4.2   l3.2,22.7l4.1,1.4c6.8,2.3,13.4,5.1,19.8,8.2l3.9,1.9l18.3-13.7c6.2,3.7,12.2,7.7,17.9,12l-5.7,22.2l3.2,2.8   c5.3,4.7,10.4,9.7,15.1,15.1l2.8,3.2l22.2-5.7c4.3,5.7,8.3,11.7,12,17.9l-13.7,18.3l1.9,3.9c3.1,6.4,5.9,13,8.2,19.8l1.4,4.1   l22.7,3.2c1.8,6.9,3.2,14,4.2,21.1l-19.7,11.6l0.3,4.3c0.2,3.5,0.3,7.1,0.3,10.7s-0.1,7.2-0.3,10.7l-0.3,4.3L444.9,282.6z"/>

</g>

</svg>